<?xml version="1.0" encoding="iso-8859-1"?>
<!-- Generator: Adobe Illustrator 19.0.0, SVG Export Plug-In . SVG Version: 6.00 Build 0)  -->
<svg version="1.1" id="Capa_1" xmlns="http://www.w3.org/2000/svg" xmlns:xlink="http://www.w3.org/1999/xlink" x="0px" y="0px"
	 viewBox="0 0 512 512" style="enable-background:new 0 0 512 512;" xml:space="preserve">
<g>
	<path style="fill:#003F8A;" d="M464.904,295.875l43.647-25.199c4.6-2.656,4.6-9.295,0-11.951l-43.647-25.199
		c-4.6-2.656-10.349,0.663-10.349,5.975v50.399C454.554,295.212,460.303,298.531,464.904,295.875z"/>
	<path style="fill:#003F8A;" d="M47.096,287.175L3.45,261.975c-4.6-2.656-4.6-9.295,0-11.951l43.647-25.199
		c4.6-2.656,10.349,0.663,10.349,5.975v50.399C57.446,286.511,51.696,289.83,47.096,287.175z"/>
</g>
<g>
	<path style="fill:#003068;" d="M57.446,230.801c0-5.312-5.749-8.631-10.349-5.975L3.45,250.025c-4.6,2.656-4.6,9.295,0,11.951
		l18.321,10.578l35.675-20.597V230.801z"/>
	<path style="fill:#003068;" d="M454.554,239.502c0-5.312,5.749-8.631,10.349-5.975l43.647,25.199c4.6,2.656,4.6,9.295,0,11.951
		l-18.321,10.578l-35.675-20.597V239.502z"/>
</g>
<path style="fill:#57E5D0;" d="M339.62,86.413l-67.731,147.515c-6.433,14.011-6.433,30.133,0,44.145l67.731,147.515
	c3.282,7.148,13.439,7.148,16.721,0l67.731-147.515c6.433-14.012,6.433-30.133,0-44.145L356.34,86.413
	C353.059,79.264,342.902,79.264,339.62,86.413z"/>
<path style="fill:#28C6AF;" d="M315.769,138.36l38.946,84.822c9.576,20.856,9.576,44.78,0,65.638l-38.946,84.821l-43.88-95.568
	c-6.433-14.012-6.433-30.133,0-44.145L315.769,138.36z"/>
<path style="fill:#FFE477;" d="M299.976,265.177c-2.678-5.833-2.678-12.522-0.001-18.353l43.325-94.359
	c1.838-4.002,7.524-4.002,9.362,0l43.324,94.358c2.678,5.832,2.678,12.521,0,18.354l-43.324,94.358
	c-1.838,4.002-7.524,4.002-9.362,0L299.976,265.177z"/>
<path style="fill:#FFD422;" d="M354.715,288.82l-21.942,47.788l-32.797-71.43c-2.678-5.832-2.678-12.522,0-18.354l32.797-71.431
	l21.942,47.789C364.29,244.038,364.29,267.962,354.715,288.82z"/>
<path style="fill:#57E5D0;" d="M154.094,86.413L86.363,233.928c-6.433,14.011-6.433,30.133,0,44.145l67.731,147.515
	c3.282,7.148,13.439,7.148,16.721,0l67.731-147.515c6.433-14.012,6.433-30.133,0-44.145L170.815,86.413
	C167.533,79.264,157.375,79.264,154.094,86.413z"/>
<path style="fill:#FFE477;" d="M114.45,265.177c-2.678-5.833-2.678-12.522,0-18.353l43.324-94.358c1.838-4.002,7.524-4.002,9.362,0
	l43.324,94.357c2.677,5.832,2.677,12.522,0,18.354l-43.323,94.357c-1.838,4.002-7.524,4.002-9.362,0L114.45,265.177z"/>
<path style="fill:#28C6AF;" d="M194.666,138.36l-38.946,84.822c-9.576,20.856-9.576,44.78,0,65.638l38.946,84.821l43.88-95.568
	c6.433-14.012,6.433-30.133,0-44.145L194.666,138.36z"/>
<path style="fill:#FFD422;" d="M155.72,288.82l21.942,47.788l32.797-71.43c2.678-5.832,2.678-12.522,0-18.354l-32.797-71.431
	l-21.942,47.789C146.144,244.038,146.144,267.962,155.72,288.82z"/>
<g>
	<circle style="fill:#003F8A;" cx="162.449" cy="256" r="24.786"/>
	<circle style="fill:#003F8A;" cx="347.985" cy="256" r="24.786"/>
</g>
<g>
	<path style="fill:#003068;" d="M162.454,231.215c-3.803,0-7.406,0.859-10.627,2.391c-4.349,14.62-4.349,30.168,0,44.789
		c3.221,1.532,6.823,2.391,10.627,2.391c13.689,0,24.785-11.096,24.785-24.785S176.143,231.215,162.454,231.215z"/>
	<path style="fill:#003068;" d="M347.98,231.215c3.803,0,7.406,0.859,10.627,2.391c4.349,14.62,4.349,30.168,0,44.789
		c-3.221,1.532-6.823,2.391-10.627,2.391c-13.689,0-24.785-11.096-24.785-24.785S334.292,231.215,347.98,231.215z"/>
</g>
<path style="fill:#FF5C5C;" d="M246.857,86.413l-67.731,147.515c-6.433,14.011-6.433,30.133,0,44.145l67.731,147.515
	c3.282,7.148,13.439,7.148,16.721,0l67.731-147.515c6.433-14.012,6.433-30.133,0-44.145L263.578,86.413
	C260.296,79.264,250.139,79.264,246.857,86.413z"/>
<path style="fill:#FF3333;" d="M253.84,233.928l38.735-84.362l-28.997-63.153c-3.282-7.147-13.439-7.147-16.721,0l-67.731,147.515
	c-6.433,14.011-6.433,30.134,0,44.145l67.731,147.515c3.282,7.147,13.439,7.147,16.721,0l28.996-63.153l-38.735-84.362
	C247.407,264.061,247.407,247.939,253.84,233.928z"/>
<path style="fill:#ABFDFF;" d="M207.212,265.177c-2.677-5.832-2.677-12.522,0-18.354l43.324-94.358c1.838-4.002,7.524-4.002,9.362,0
	l43.323,94.358c2.678,5.832,2.678,12.521,0,18.354l-43.323,94.358c-1.838,4.002-7.524,4.002-9.362,0L207.212,265.177z"/>
<path style="fill:#57E5D0;" d="M253.84,233.928l21.731-47.329l-15.672-34.134c-1.838-4.002-7.524-4.002-9.362,0l-43.324,94.358
	c-2.677,5.832-2.677,12.522,0,18.354l43.324,94.358c1.838,4.002,7.524,4.002,9.362,0l15.672-34.134l-21.731-47.329
	C247.407,264.061,247.407,247.939,253.84,233.928z"/>
<circle style="fill:#FF5C5C;" cx="255.217" cy="256" r="24.786"/>
<path style="fill:#FF3333;" d="M253.84,233.925l1.244-2.709c-13.627,0.072-24.652,11.138-24.652,24.782
	c0,13.644,11.025,24.71,24.652,24.782l-1.244-2.709C247.407,264.057,247.407,247.936,253.84,233.925z"/>
<g>
	<path style="fill:#28C6AF;" d="M257.411,188.897c-2.076-0.577-4.344-0.298-6.226,0.757c-1.885,1.065-3.292,2.865-3.871,4.951
		c-0.577,2.076-0.299,4.344,0.766,6.228c1.065,1.885,2.865,3.292,4.941,3.869c2.086,0.579,4.354,0.302,6.239-0.764
		c1.875-1.068,3.282-2.868,3.859-4.944c0.579-2.086,0.301-4.354-0.754-6.236C261.297,190.886,259.497,189.477,257.411,188.897z"/>
	<path style="fill:#28C6AF;" d="M258.193,307.296c-2.076-0.577-4.344-0.298-6.226,0.757c-1.885,1.065-3.292,2.865-3.871,4.951
		c-0.577,2.076-0.299,4.344,0.766,6.228c1.065,1.885,2.865,3.292,4.941,3.869c2.086,0.579,4.354,0.302,6.239-0.764
		c1.875-1.068,3.282-2.868,3.859-4.944c0.579-2.086,0.301-4.354-0.754-6.236C262.079,309.283,260.28,307.875,258.193,307.296z"/>
</g>
<g>
</g>
<g>
</g>
<g>
</g>
<g>
</g>
<g>
</g>
<g>
</g>
<g>
</g>
<g>
</g>
<g>
</g>
<g>
</g>
<g>
</g>
<g>
</g>
<g>
</g>
<g>
</g>
<g>
</g>
</svg>
